<svg id="visual" viewBox="0 0 1080 450" width="1080" height="450" xmlns="http://www.w3.org/2000/svg" xmlns:xlink="http://www.w3.org/1999/xlink" version="1.1"><rect x="0" y="0" width="1080" height="450" fill="#f5eec2"></rect><path d="M0 251L98 225L196 267L295 224L393 247L491 258L589 248L687 231L785 230L884 270L982 270L1080 241L1080 451L982 451L884 451L785 451L687 451L589 451L491 451L393 451L295 451L196 451L98 451L0 451Z" fill="#416a59"></path><path d="M0 290L98 296L196 293L295 268L393 276L491 295L589 298L687 290L785 271L884 314L982 283L1080 312L1080 451L982 451L884 451L785 451L687 451L589 451L491 451L393 451L295 451L196 451L98 451L0 451Z" fill="#45795b"></path><path d="M0 325L98 316L196 335L295 337L393 328L491 338L589 326L687 332L785 337L884 313L982 334L1080 322L1080 451L982 451L884 451L785 451L687 451L589 451L491 451L393 451L295 451L196 451L98 451L0 451Z" fill="#4f875a"></path><path d="M0 365L98 381L196 359L295 367L393 375L491 381L589 365L687 354L785 348L884 372L982 353L1080 376L1080 451L982 451L884 451L785 451L687 451L589 451L491 451L393 451L295 451L196 451L98 451L0 451Z" fill="#5f9555"></path><path d="M0 418L98 418L196 406L295 391L393 414L491 389L589 390L687 416L785 410L884 388L982 418L1080 395L1080 451L982 451L884 451L785 451L687 451L589 451L491 451L393 451L295 451L196 451L98 451L0 451Z" fill="#73a24e"></path></svg>